<svg width="194" height="126" viewBox="0 0 194 126" fill="none" xmlns="http://www.w3.org/2000/svg">
<ellipse cx="29.0999" cy="96.9231" rx="29.0769" ry="29.0999" transform="rotate(-90 29.0999 96.9231)" fill="black"/>
<path d="M12.5193 95.8624C11.9335 96.4482 11.9335 97.398 12.5193 97.9837L22.0653 107.53C22.6511 108.115 23.6008 108.115 24.1866 107.53C24.7724 106.944 24.7724 105.994 24.1866 105.408L15.7013 96.9231L24.1866 88.4378C24.7724 87.852 24.7724 86.9023 24.1866 86.3165C23.6008 85.7307 22.6511 85.7307 22.0653 86.3165L12.5193 95.8624ZM44.6199 95.4231L13.58 95.4231L13.58 98.4231L44.6199 98.4231L44.6199 95.4231Z" fill="white"/>
<ellipse cx="96.9995" cy="29.0769" rx="29.0999" ry="29.0769" fill="black"/>
<path d="M98.0602 12.5086C97.4744 11.9228 96.5246 11.9228 95.9389 12.5086L86.3929 22.0545C85.8071 22.6403 85.8071 23.59 86.3929 24.1758C86.9787 24.7616 87.9284 24.7616 88.5142 24.1758L96.9995 15.6905L105.485 24.1758C106.071 24.7616 107.02 24.7616 107.606 24.1758C108.192 23.59 108.192 22.6403 107.606 22.0545L98.0602 12.5086ZM98.4995 44.5846L98.4995 13.5692L95.4995 13.5692L95.4995 44.5846L98.4995 44.5846Z" fill="white"/>
<ellipse cx="96.9997" cy="96.9231" rx="29.0999" ry="29.0769" transform="rotate(-180 96.9997 96.9231)" fill="black"/>
<path d="M95.9391 113.491C96.5249 114.077 97.4746 114.077 98.0604 113.491L107.606 103.945C108.192 103.36 108.192 102.41 107.606 101.824C107.021 101.238 106.071 101.238 105.485 101.824L96.9998 110.309L88.5145 101.824C87.9287 101.238 86.9789 101.238 86.3932 101.824C85.8074 102.41 85.8074 103.36 86.3932 103.945L95.9391 113.491ZM95.4998 81.4154L95.4998 112.431L98.4998 112.431L98.4998 81.4154L95.4998 81.4154Z" fill="white"/>
<ellipse cx="164.9" cy="96.9231" rx="29.0769" ry="29.0999" transform="rotate(90 164.9 96.9231)" fill="black"/>
<path d="M181.481 97.9837C182.066 97.398 182.066 96.4482 181.481 95.8624L171.935 86.3165C171.349 85.7307 170.399 85.7307 169.813 86.3165C169.228 86.9023 169.228 87.852 169.813 88.4378L178.299 96.9231L169.813 105.408C169.228 105.994 169.228 106.944 169.813 107.53C170.399 108.115 171.349 108.115 171.935 107.53L181.481 97.9837ZM149.38 98.4231L180.42 98.4231L180.42 95.4231L149.38 95.4231L149.38 98.4231Z" fill="white"/>
</svg>
