<svg width="59" height="60" viewBox="0 0 59 60" fill="none" xmlns="http://www.w3.org/2000/svg">
<ellipse cx="29.0998" cy="30.0769" rx="29.0769" ry="29.0999" transform="rotate(90 29.0998 30.0769)" fill="black"/>
<path d="M35.4 54.56C34.68 54.1867 33.96 53.6533 33.24 52.96C32.5467 52.2667 31.88 51.5067 31.24 50.68C30.6267 49.8533 30.0667 49.0667 29.56 48.32C29.4533 48.3467 29.3333 48.36 29.2 48.36C29.0667 48.36 28.9333 48.36 28.8 48.36C26.6133 48.36 24.8667 47.9333 23.56 47.08C22.2533 46.2267 21.32 45.0133 20.76 43.44C20.2 41.84 19.92 39.9733 19.92 37.84V25.56C19.92 23.4267 20.2 21.6 20.76 20.08C21.3467 18.5333 22.28 17.36 23.56 16.56C24.8667 15.7333 26.6133 15.32 28.8 15.32C30.9867 15.32 32.72 15.7333 34 16.56C35.3067 17.3867 36.24 18.56 36.8 20.08C37.3867 21.6 37.68 23.4267 37.68 25.56V37.88C37.68 39.4533 37.52 40.8933 37.2 42.2C36.88 43.48 36.3733 44.5867 35.68 45.52C34.9867 46.4267 34.0667 47.12 32.92 47.6C33.24 48 33.5867 48.4133 33.96 48.84C34.3333 49.2933 34.7067 49.7067 35.08 50.08C35.4533 50.4533 35.8 50.76 36.12 51L35.4 54.56ZM28.8 44.8C30.0267 44.8 30.9467 44.56 31.56 44.08C32.1733 43.5733 32.5867 42.88 32.8 42C33.0133 41.0933 33.12 40.04 33.12 38.84V24.64C33.12 23.44 33.0133 22.4133 32.8 21.56C32.5867 20.68 32.1733 20.0133 31.56 19.56C30.9467 19.08 30.0267 18.84 28.8 18.84C27.6 18.84 26.68 19.08 26.04 19.56C25.4267 20.0133 25.0133 20.68 24.8 21.56C24.5867 22.4133 24.48 23.44 24.48 24.64V38.84C24.48 40.04 24.5867 41.0933 24.8 42C25.0133 42.88 25.4267 43.5733 26.04 44.08C26.68 44.56 27.6 44.8 28.8 44.8Z" fill="white"/>
</svg>
