<svg width="59" height="60" viewBox="0 0 59 60" fill="none" xmlns="http://www.w3.org/2000/svg">
<ellipse cx="29.0998" cy="30.0769" rx="29.0769" ry="29.0999" transform="rotate(90 29.0998 30.0769)" fill="black"/>
<path d="M20.52 48V15.6H27.04C29.2 15.6 30.9867 15.8933 32.4 16.48C33.8133 17.04 34.8533 17.96 35.52 19.24C36.2133 20.4933 36.56 22.1467 36.56 24.2C36.56 25.4533 36.4267 26.6 36.16 27.64C35.8933 28.6533 35.4667 29.52 34.88 30.24C34.2933 30.9333 33.52 31.44 32.56 31.76L37.16 48H32.8L28.56 32.8H25.04V48H20.52ZM25.04 29.56H26.76C28.04 29.56 29.08 29.4 29.88 29.08C30.68 28.76 31.2667 28.2133 31.64 27.44C32.0133 26.6667 32.2 25.5867 32.2 24.2C32.2 22.3067 31.8533 20.9467 31.16 20.12C30.4667 19.2667 29.0933 18.84 27.04 18.84H25.04V29.56Z" fill="white"/>
</svg>
